<svg width="12" height="16" viewBox="0 0 12 16" fill="none" xmlns="http://www.w3.org/2000/svg">
<path d="M11.7075 4.43776C11.6696 4.34507 11.6135 4.26092 11.5425 4.19026L8.07 0.717759C7.92948 0.578071 7.73939 0.499664 7.54125 0.499664C7.34311 0.499664 7.15302 0.578071 7.0125 0.717759C6.9422 0.787481 6.88641 0.870432 6.84833 0.961826C6.81025 1.05322 6.79065 1.15125 6.79065 1.25026C6.79065 1.34927 6.81025 1.4473 6.84833 1.53869C6.88641 1.63009 6.9422 1.71304 7.0125 1.78276L9.2025 3.97276H3.2025C2.40685 3.97276 1.64379 4.28883 1.08118 4.85144C0.51857 5.41405 0.202499 6.17711 0.202499 6.97276V14.7503C0.202499 14.9492 0.281517 15.1399 0.422169 15.2806C0.562822 15.4212 0.753587 15.5003 0.952499 15.5003C1.15141 15.5003 1.34218 15.4212 1.48283 15.2806C1.62348 15.1399 1.7025 14.9492 1.7025 14.7503V6.97276C1.7025 6.57493 1.86053 6.1934 2.14184 5.9121C2.42314 5.63079 2.80468 5.47276 3.2025 5.47276H9.2025L7.0125 7.66276C6.90673 7.76766 6.83459 7.90169 6.80529 8.04775C6.77599 8.19381 6.79085 8.34529 6.84797 8.48287C6.9051 8.62045 7.0019 8.73791 7.12604 8.82026C7.25018 8.90261 7.39603 8.94613 7.545 8.94526C7.74283 8.94244 7.93153 8.86157 8.07 8.72026L11.5425 5.25526C11.6117 5.18031 11.6675 5.09406 11.7075 5.00026C11.7805 4.81986 11.7805 4.61816 11.7075 4.43776Z" fill="black"/>
</svg>
